<svg width="71" height="59" viewBox="0 0 71 59" fill="none" xmlns="http://www.w3.org/2000/svg">
<path d="M34.9316 7.79401C35.2734 7.5374 35.7266 7.5374 36.0684 7.79401C39.3959 10.2928 56.2079 23.5269 56.208 35.8214C56.208 44.5494 46.9369 51.6251 35.5 51.6251C24.0631 51.6251 14.792 44.5494 14.792 35.8214C14.7921 23.5269 31.6041 10.2928 34.9316 7.79401ZM24.2021 35.3038C23.9306 35.3532 23.7505 35.6142 23.7998 35.8858C24.1794 37.9731 25.3572 39.9036 27.1592 41.3917C28.9613 42.8797 31.2923 43.8463 33.8066 44.1485C34.0806 44.1813 34.3303 43.986 34.3633 43.712C34.396 43.438 34.1997 43.1884 33.9258 43.1553C31.5851 42.874 29.438 41.976 27.7959 40.6202C26.1563 39.2662 25.1162 37.5381 24.7832 35.7071C24.7337 35.4356 24.4736 35.2546 24.2021 35.3038Z" fill="url(#paint0_linear_243_94)"/>
<defs>
<linearGradient id="paint0_linear_243_94" x1="14.792" y1="29.6134" x2="56.208" y2="29.6134" gradientUnits="userSpaceOnUse">
<stop stop-color="#FF4141"/>
<stop offset="0.562508" stop-color="#FF6D6D"/>
</linearGradient>
</defs>
</svg>
