<svg width="28" height="26" viewBox="0 0 28 26" fill="none" xmlns="http://www.w3.org/2000/svg">
<path d="M14.3015 4.73376C20.3858 4.73388 24.3624 7.12293 26.5505 9.00427C27.4793 9.80287 27.9437 10.2027 27.9216 11.1488C27.8994 12.0948 27.3892 12.4935 26.3698 13.2904C23.9337 15.1946 19.6776 17.7336 14.3015 17.7338C8.92508 17.7338 4.66832 15.1947 2.23214 13.2904C1.21273 12.4935 0.702552 12.0948 0.680382 11.1488C0.65829 10.2027 1.1227 9.80287 2.05148 9.00427C4.2396 7.12288 8.21683 4.73376 14.3015 4.73376ZM15.4138 7.73376C12.2469 7.73392 9.67975 9.39658 9.67941 11.4476C9.67941 13.4989 12.2467 15.1623 15.4138 15.1625C18.581 15.1625 21.1491 13.499 21.1491 11.4476C21.1488 9.39648 18.5808 7.73376 15.4138 7.73376Z" fill="#222222"/>
<line x1="0.339701" y1="25.3669" x2="27.3397" y2="0.366886" stroke="black"/>
</svg>
